<?xml version="1.0"?>
<svg xmlns="http://www.w3.org/2000/svg" height="512px" viewBox="-2 1 511 511.999" width="512px" class=""><g><path d="m194.433594 169.953125c-2.316406 5.621094-1.011719 12.082031 3.304687 16.363281l80.980469 80.332032c2.921875 2.902343 6.742188 4.351562 10.5625 4.351562s7.640625-1.449219 10.5625-4.351562l80.980469-80.332032c4.3125-4.28125 5.621093-10.742187 3.304687-16.363281-2.3125-5.617187-7.789062-9.285156-13.867187-9.285156h-26.710938v-145.667969c0-8.285156-6.714843-15-15-15h-80.332031c-8.285156 0-15 6.714844-15 15v145.667969h-24.914062c-6.082032 0-11.558594 3.667969-13.871094 9.285156zm0 0" data-original="#000000" class="active-path" data-old_color="#000000" fill="#FFFFFF"/><path d="m495.425781 97.144531c-9.492187-10.839843-23.019531-16.8125-38.09375-16.8125h-83.78125v50.453125c16.949219 1.222656 31.765625 11.839844 38.316407 27.742188 6.972656 16.925781 3.082031 36.191406-9.914063 49.085937l-80.984375 80.335938c-8.484375 8.417969-19.738281 13.050781-31.6875 13.050781-11.953125 0-23.207031-4.636719-31.691406-13.054688l-80.984375-80.332031c-12.992188-12.894531-16.882813-32.160156-9.910157-49.085937 6.316407-15.339844 20.324219-25.761719 36.523438-27.578125v-50.617188h-110.316406l-3.667969-27.5c-3.953125-29.625-24.578125-52.832031-46.957031-52.832031h-26.777344c-8.285156 0-15 6.714844-15 15s6.714844 15 15 15h26.777344c4.8125 0 15.003906 10.175781 17.21875 26.796875l5.398437 40.488281c.003907.011719 0 .019532.003907.03125l15.980468 119.871094 21.554688 161.648438c1.894531 14.195312 9.1875 27.484374 20.535156 37.421874 8.414062 7.367188 18.367188 12.273438 28.789062 14.320313-4.246093 7.8125-6.65625 16.757813-6.65625 26.253906 0 30.417969 24.746094 55.167969 55.164063 55.167969s55.167969-24.75 55.167969-55.167969c0-9.0625-2.210938-17.613281-6.101563-25.167969h78.601563c-3.890625 7.554688-6.101563 16.105469-6.101563 25.167969 0 30.417969 24.75 55.167969 55.167969 55.167969s55.167969-24.75 55.167969-55.167969c0-9.0625-2.210938-17.613281-6.101563-25.167969h39.300782c8.285156 0 15-6.714843 15-15 0-8.28125-6.714844-15-15-15h-302.589844c-14.652344 0-28.671875-12.269531-30.609375-26.796874l-3.136719-23.535157h296.167969c14.320312 0 28.457031-5.472656 39.808593-15.410156 11.351563-9.933594 18.644532-23.226563 20.535157-37.421875l21.515625-161.367188c1.992187-14.941406-2.140625-29.144531-11.632813-39.988281zm0 0" data-original="#000000" class="active-path" data-old_color="#000000" fill="#FFFFFF"/></g> </svg>
